<?xml version="1.0" standalone="no"?>
<!DOCTYPE svg PUBLIC "-//W3C//DTD SVG 20010904//EN"
 "http://www.w3.org/TR/2001/REC-SVG-20010904/DTD/svg10.dtd">
<svg version="1.0" xmlns="http://www.w3.org/2000/svg"
 width="1280.000000pt" height="1280.000000pt" viewBox="0 0 1280.000000 1280.000000"
 preserveAspectRatio="xMidYMid meet">
<metadata>
Created by potrace 1.11, written by Peter Selinger 2001-2013
</metadata>
<g transform="translate(0.000000,1280.000000) scale(0.100000,-0.100000)"
fill="#000000" stroke="none">
<path d="M2402 10691 l0 -356 -360 -3 -359 -2 -1 -338 c0 -185 -1 -347 -1
-359 l-1 -23 -359 0 -358 0 0 -1417 c0 -780 3 -1420 8 -1423 4 -3 165 -5 358
-4 l351 0 1 -45 c0 -26 1 -187 1 -358 0 -284 1 -313 16 -314 10 0 171 -1 360
-1 l342 -1 1 -31 c0 -17 0 -178 0 -358 l1 -328 21 -1 c12 0 174 0 360 -1 l337
0 0 -32 c1 -17 1 -178 1 -358 l0 -328 82 0 c45 -1 207 -1 359 0 l277 0 1 -82
c0 -46 1 -90 1 -98 1 -39 0 -258 -1 -280 -1 -14 -2 -29 -2 -35 0 -5 1 -58 2
-117 l1 -108 357 -2 357 -3 2 -320 c1 -176 2 -337 3 -357 l0 -38 358 -2 357
-3 2 -325 c1 -179 2 -340 2 -357 l1 -33 358 -2 357 -3 2 -335 c1 -184 2 -345
2 -358 l1 -22 358 2 357 3 0 358 0 357 361 0 361 0 0 357 -1 358 360 3 360 2
-1 343 c0 188 1 350 3 360 4 16 29 17 361 17 l357 0 -1 359 0 360 325 0 c179
0 341 0 360 1 l35 0 0 358 0 357 325 2 c179 1 341 2 360 2 l35 1 0 357 0 358
340 2 c187 1 349 2 360 2 20 1 20 8 20 358 l0 358 350 2 c193 0 355 2 360 2 7
1 10 480 10 1419 l-1 1417 -360 5 -360 5 1 358 0 357 -360 0 -360 0 0 359 0
359 -1417 0 c-1079 1 -1417 -2 -1420 -11 -2 -7 -3 -168 -2 -359 l1 -348 -359
0 c-334 0 -358 -1 -359 -17 0 -10 -1 -172 -1 -360 l-1 -343 -358 0 c-280 0
-359 3 -360 13 0 6 -1 168 -1 360 l0 347 -355 0 c-196 -1 -358 1 -360 4 -2 2
-5 164 -5 359 l0 355 -1458 0 -1458 0 0 -357z"/>
</g>
</svg>
